<svg width="330" height="70" viewBox="0 0 330 70" fill="none" xmlns="http://www.w3.org/2000/svg">
<path d="M190.055 21.7319C187.147 21.7319 184.018 22.3042 181.601 24.2681C179.073 25.9023 177.875 27.5173 177.365 28.1525C176.855 28.7877 176.484 28.5095 176.647 28.1525C176.811 27.7955 178.914 22.6761 178.914 22.6761C178.914 22.6761 179.442 21.7319 178.914 21.2031C178.385 20.6744 177.365 21.2031 177.365 21.2031C171.851 23.507 165.959 25.0177 159.727 25.6976C159.727 25.6976 158.544 25.7143 158.544 26.9798C158.544 28.2452 159.727 28.1525 159.727 28.1525C162.031 28.4169 163.504 28.9079 164.222 29.6255C164.901 30.3431 165.241 31.4761 165.241 33.0246V62.8996C165.241 64.6747 165.053 65.6189 163.731 66.2609C163.089 66.6009 162.56 66.7897 162.22 66.903C161.842 66.9785 161.011 67.1296 159.727 67.394C159.727 67.394 158.312 67.4965 158.405 68.6554C158.498 69.8144 159.727 70 159.727 70H184.428C184.428 70 185.617 69.8607 185.617 68.7018C185.617 67.5428 184.428 67.394 184.428 67.394C182.955 67.1296 182.048 66.9785 181.633 66.903C181.217 66.7897 180.651 66.6009 179.896 66.2609C178.385 65.6189 178.234 64.6747 178.234 62.8996V56.0257C180.726 56.7811 183.219 57.1587 185.674 57.1587C190.206 57.1587 194.814 55.5347 198.515 52.5132C202.217 49.5295 204.672 44.4685 204.672 38.4633C204.672 33.289 203.199 29.21 200.253 26.2263C197.269 23.2426 193.87 21.7319 190.055 21.7319ZM184.654 53.6085C182.539 53.6085 180.953 52.7021 179.858 50.9269C178.763 49.1518 178.234 46.9235 178.234 44.3175V35.5174C178.234 34.0444 178.838 32.3826 180.047 30.5319C181.217 28.6813 182.615 27.7748 184.201 27.7748C186.278 27.7748 187.902 29.0212 189.149 31.5139C190.395 34.0066 190.999 37.2169 190.999 41.1449C190.999 49.4539 188.884 53.6085 184.654 53.6085Z" fill="white"/>
<path d="M281.883 53.5656C282.412 53.6789 283.281 53.8678 284.452 54.1322C284.452 54.1322 285.796 54.2666 285.796 55.7684C285.796 57.2702 284.452 57.3322 284.452 57.3322H260.811C260.811 57.3322 259.65 57.0547 259.65 55.7684C259.65 54.4821 260.811 54.2666 260.811 54.2666C262.461 54.1746 262.987 53.7148 262.987 53.7148C263.478 53.6015 264.007 53.3371 264.611 52.9972C265.819 52.3174 266.046 51.3732 266.046 49.7491V35.3423C266.046 33.7938 265.706 33.2896 265.026 32.572C264.35 31.8961 263.562 30.889 261.203 30.66C261.203 30.66 259.557 30.502 259.557 28.4166C259.557 26.3312 261.171 25.8825 261.171 25.8825C266.853 24.9614 271.444 23.9619 273.882 23.1431C273.882 23.1431 275.553 22.4274 276.617 22.7633C277.681 23.0991 277.358 24.9404 277.358 24.9404C277.203 26.2361 276.957 28.26 276.895 28.6021C276.802 29.112 277.173 29.4246 277.488 28.8339C279.955 24.1981 286.34 22.0564 290.57 22.0564C291.552 22.0564 295.052 21.8946 295.5 22.7633C295.948 23.6319 293.399 24.9398 291.637 27.6285C290.476 29.4012 289.19 32.1252 288.953 32.9133C288.716 33.7014 287.697 33.1678 287.697 33.1678C285.847 32.4057 282.905 32.2647 281.252 33.7901C279.212 35.6718 278.749 38.2476 278.749 41.1558V49.5999C278.749 51.2617 279.088 52.1682 280.221 52.848C280.788 53.1879 281.317 53.4523 281.883 53.5656Z" fill="white"/>
<path d="M212.705 23.1624C212.705 17.175 213.43 13.2346 217.556 8.46307C221.419 3.99533 225.484 1.6682 231.047 1.66815C232.443 1.66814 235.993 2.04533 235.328 3.7079C235.05 4.40326 234.169 5.42314 233.845 5.88672C233.119 6.924 232.762 7.09202 230.723 7.30378C224.14 8.53542 225.291 18.3559 225.291 22.6916V26.3769C225.291 27.9994 227.709 27.8603 228.59 27.8603C229.471 27.8603 231.387 28.3495 231.387 30.0949C231.387 31.8404 229.61 32.357 228.822 32.357C228.034 32.357 225.291 32.0325 225.291 34.9994V38.9399V49.6414C225.291 51.2083 225.431 52.4307 226.458 53.3108C227.107 53.8671 228.273 53.9592 229.054 54.1938C229.054 54.1938 230.259 54.4814 230.259 55.7678C230.259 57.0541 228.801 57.2395 228.801 57.2395L206.885 57.3322C206.885 57.3322 205.55 56.776 205.55 55.4896C205.55 54.2033 206.885 54.0566 206.885 54.0566C208.974 53.7582 210.466 53.3105 211.324 52.7509C212.182 52.1912 212.63 51.1466 212.63 49.5797V34.0259C212.63 31.569 210.464 31.6617 208.656 31.3835C206.848 31.1054 205.782 30.3581 205.782 28.8283C205.782 27.2985 207.173 26.5947 207.776 26.6248C208.235 26.6478 210.325 26.9332 210.882 26.9725L210.901 26.9739C211.467 27.0141 212.705 27.102 212.705 25.6815V23.1624Z" fill="white"/>
<path d="M238.743 34.3968V48.9532C238.743 53.3114 238.094 54.0525 235.606 54.3434C235.606 54.3434 234.292 54.3434 234.292 55.7684C234.292 57.1934 235.606 57.3322 235.606 57.3322H253.854C253.854 57.3322 255.339 57.2055 255.339 55.9538C255.339 54.7022 254.41 54.2666 254.41 54.2666L254.405 54.2649C253.57 53.9939 252.865 53.7653 252.186 53.2754C251.507 52.7844 251.486 51.3354 251.486 49.7491C251.486 49.7491 251.491 35.973 251.491 34.1186C251.491 32.2643 252.001 31.2476 253.299 31.059C254.597 30.8705 255.326 30.1782 255.256 28.9077C255.187 27.6372 254.551 26.516 253.114 26.7014C251.676 26.8868 248.664 27.6578 245.372 27.8899C242.079 28.1221 239.438 28.2587 237.676 28.2312C235.915 28.2037 234.679 28.976 234.679 30.2725C234.679 31.5689 235.49 32.1716 236.282 32.218C237.074 32.2643 238.743 32.218 238.743 34.3968Z" fill="white"/>
<path fill-rule="evenodd" clip-rule="evenodd" d="M111.893 53.8542C111.806 53.8023 111.72 53.7516 111.6 53.6969C110.693 53.2815 109.938 52.0729 109.938 49.9201V32.5843C111.864 30.2805 113.904 29.1096 116.019 29.1096C117.529 29.1096 118.625 29.5629 119.267 30.4693C119.909 31.3757 120.211 33.0753 120.211 35.6058V49.9201C120.211 51.5441 119.947 52.4883 118.889 53.1682C118.323 53.5081 117.869 53.7725 117.529 53.8858C117.152 53.9991 117.007 54.0527 116.266 54.3308C116.266 54.3308 115.397 54.6215 115.397 55.7742C115.397 56.9269 116.544 57.0961 116.544 57.0961H136.987C136.987 57.0961 138.1 56.9269 138.1 55.7679C138.1 54.609 137.327 54.4523 137.327 54.4523C137.327 54.4523 135.643 53.8673 134.487 53.1682C133.332 52.4691 133.128 51.5819 133.128 49.9201V32.3577C135.243 30.2049 137.32 29.1096 139.397 29.1096C142.268 29.1096 143.665 30.6581 143.665 35.6058V49.9201C143.665 51.242 143.586 51.8085 142.872 52.7527C142.208 53.6314 140.976 54.0807 140.509 54.251C140.474 54.2637 140.444 54.2748 140.418 54.2845C140.361 54.306 140.287 54.3246 140.205 54.3456C139.756 54.4601 139.027 54.6455 139.027 55.7679C139.027 57.0961 140.418 57.0961 140.418 57.0961H161.001C161.001 57.0961 162.484 57.066 162.484 55.8143C162.484 54.5626 161.001 54.4236 161.001 54.4236C159.904 54.1799 159.422 53.9795 159.019 53.812C158.922 53.7718 158.83 53.7335 158.735 53.6969C157.677 53.2815 156.582 52.0729 156.582 49.9201V34.2839C156.582 30.6581 155.827 27.75 154.316 25.5972C152.767 23.4444 149.897 22.3491 145.667 22.3491C142.532 22.3491 140.002 22.9911 138.151 24.2375C136.263 25.5216 134.45 27.3723 132.75 29.7895H132.599C131.202 24.8418 127.614 22.3491 121.911 22.3491C118.549 22.3491 116.189 22.9988 113.866 24.7285C112.573 25.5142 111.63 26.1431 111.001 26.6147C110.372 27.0864 108.679 28.483 108.485 28.6585C108.292 28.834 107.689 29.1096 107.898 28.5013C108.108 27.893 109.08 24.4769 109.08 24.4769C109.08 24.4769 109.683 22.7977 108.802 22.1127C107.967 21.4637 106.53 22.3491 106.53 22.3491C102.867 24.2753 98.8718 25.2195 91.8091 26.3148C91.8091 26.3148 90.5621 26.3989 90.5621 27.5287C90.5621 28.6585 91.8091 28.7697 91.8091 28.7697C93.9242 28.6564 95.3216 28.9586 95.9637 29.6006C96.6057 30.2427 96.9456 31.338 96.9456 32.8865V49.9201C96.9456 51.5441 96.6435 52.4883 95.6237 53.1682C95.095 53.5081 93.0668 53.8922 89.7653 53.8922C86.4638 53.8922 84.7345 51.2195 84.7001 48.7493C84.6657 46.279 84.7001 33.8307 84.7001 33.8307C84.7001 30.1671 83.6048 27.2212 81.3764 25.0684C79.1481 22.9156 76.0511 21.8203 72.0854 21.8203C69.6304 21.8203 66.8356 22.2358 63.7386 23.0289C60.6415 23.8221 57.8845 25.0306 55.4295 26.6547C52.9746 28.2787 51.766 30.0538 51.766 31.9045C51.766 32.9242 52.1436 33.8684 52.899 34.7371C53.6166 35.6058 54.6364 36.059 55.9205 36.059C57.5445 36.059 58.9042 35.4169 60.075 34.1706C61.2458 32.9242 62.3411 30.6581 63.4364 27.41C63.8896 26.1259 64.5695 25.4839 65.4381 25.4839C67.5909 25.4839 69.215 25.9371 70.2347 26.8435C71.2545 27.7877 71.7832 29.6384 71.7832 32.4333V34.1328C71.7832 34.8605 69.5171 36.0212 68.6107 36.3989C68.1575 36.5878 67.5909 36.8144 66.8733 37.0032C66.3988 37.1281 66.0565 37.2364 65.8352 37.3064C65.7219 37.3423 65.6404 37.3681 65.5892 37.3809C65.2493 37.4942 64.6828 37.6453 63.9652 37.8341C62.7334 38.208 61.6554 38.5307 60.7237 38.8096C60.0555 39.0096 59.4625 39.1871 58.942 39.3449C57.6956 39.7603 56.3737 40.2513 54.9763 40.8934C53.5411 41.5354 52.4458 42.2153 51.7282 42.8573C50.2175 44.217 49.0466 46.3321 49.0466 48.9003C49.0466 51.733 50.0664 53.8102 52.1059 55.1321C54.1076 56.454 56.487 57.0961 59.2441 57.0961C64.0407 57.1339 68.233 55.1321 71.7832 51.0909C71.9343 52.6394 72.7652 53.9991 74.3137 55.2454C75.8245 56.4918 77.4107 57.0961 79.0726 57.0961L86.9284 57.0979C87.4985 57.0968 88.0375 57.0971 88.799 57.0974C89.2754 57.0977 89.8389 57.0979 90.5514 57.0979H91.8091L113.113 57.0961C113.113 57.0961 113.994 56.9269 113.994 55.7679C113.994 54.609 113.113 54.3308 113.113 54.3308C112.335 54.1161 112.108 53.9818 111.893 53.8542ZM63.0377 50.0066C63.7176 51.1019 64.7373 51.6307 66.0592 51.6307C67.8343 51.6307 69.7227 50.271 71.8 47.5894V39.0159L66.8523 40.2623C63.7931 41.1687 61.9802 43.6993 61.9802 46.3053C61.9802 47.7027 62.3201 48.9113 63.0377 50.0066Z" fill="white"/>
<path d="M17.2915 42.4632C21.0646 48.909 24.833 51.0857 32.8677 51.0857C36.3446 51.0857 39.4505 49.9732 42.2784 48.7058C45.1062 47.4385 46.8214 48.9708 46.7751 50.6309C46.7287 52.291 45.6161 53.3573 44.4108 54.1917C43.2055 55.0262 38.9012 57.3912 29.9791 57.3912C21.0569 57.3912 13.8397 55.0118 8.44095 50.2532C3.04221 45.5511 0 39.0929 0 30.9351C0 22.4941 3.15587 15.9793 8.89558 11.2772C14.5785 6.57519 21.6957 3.63815 30.9452 4.2525C38.046 4.72415 41.2128 6.29362 44.9635 9.12617C48.7142 11.9587 49.9948 16.2372 50.1516 17.6158C50.4837 20.5359 50.395 22.5781 47.0073 23.2755C41.662 24.376 39.9736 20.4457 39.3038 18.2446C38.6339 16.0436 34.5873 10.2329 29.3992 9.75503C18.5514 8.75589 15.2172 17.4787 14.4638 23.2755C13.7104 29.0724 13.5183 36.0174 17.2915 42.4632Z" fill="white"/>
<path d="M318.403 50.4915C312.398 50.4915 308.546 46.4125 307.375 39.5009H327.921C329.847 35.3841 329.281 31.4184 326.259 27.566C323.238 23.7136 318.781 21.7875 312.927 21.7875C307.715 21.7875 303.221 23.3737 299.481 26.5085C295.705 29.6433 293.816 33.9867 293.816 39.5009C293.816 44.9017 295.591 49.2074 299.179 52.4177C302.73 55.628 307.375 57.2143 313.154 57.2143C316.93 57.2143 320.179 56.4967 322.86 55.0237C325.542 53.5885 327.317 51.6246 328.261 49.1696C328.261 49.1696 328.538 48.2382 327.921 47.6211C327.304 47.004 326.448 47.6211 326.448 47.6211C325.806 48.452 324.673 49.1319 323.124 49.6606C321.576 50.2271 319.99 50.4915 318.403 50.4915ZM312.398 25.2999C314.249 25.2999 315.495 26.3952 316.137 28.5858C316.742 30.8141 316.704 33.3068 316.024 36.1017H307.035V35.4219C307.035 28.6235 309.075 25.2999 312.398 25.2999Z" fill="white"/>
<path fill-rule="evenodd" clip-rule="evenodd" d="M246.769 24.5396C250.904 23.549 253.975 19.8516 253.975 15.4418C253.975 9.35865 246.436 0 244.551 0C242.666 0 235.127 8.42279 235.127 15.4418C235.127 20.0709 238.511 23.9151 242.957 24.6671C241.355 23.9608 240.233 22.3268 240.233 20.424C240.233 16.962 243.831 12.8075 244.731 12.8075C245.63 12.8075 249.228 17.4236 249.228 20.424C249.228 22.2201 248.228 23.7766 246.769 24.5396Z" fill="url(#paint0_linear)"/>
<defs>
<linearGradient id="paint0_linear" x1="244.551" y1="0" x2="244.551" y2="24.8004" gradientUnits="userSpaceOnUse">
<stop offset="0.00872838" stop-color="#F27357"/>
<stop offset="0.633754" stop-color="#FFB554"/>
<stop offset="1" stop-color="#FFE780"/>
</linearGradient>
</defs>
</svg>
