<svg width="200" height="60" viewBox="0 0 200 60" xmlns="http://www.w3.org/2000/svg">
  <!-- Campfire text in white -->
  <text x="10" y="40" font-family="Arial, sans-serif" font-size="32" font-weight="bold" fill="white">
    Campfire
  </text>
  <!-- Flame icon -->
  <g transform="translate(160, 15)">
    <path d="M15 30c0-8.284 6.716-15 15-15 0 0-3 3-3 8 0 3.314-2.686 6-6 6s-6-2.686-6-6c0-2 2-4 2-4s-1 2-1 4c0 1.105.895 2 2 2s2-.895 2-2c0-3-2-5-2-5s4 4 4 8c0 2.21-1.79 4-4 4" 
          fill="#FF6B35"/>
    <path d="M20 25c0-5 5-10 5-10s-2 5-2 10c0 2.76-2.24 5-5 5s-5-2.24-5-5c0-3 3-6 3-6s-1 3-1 6c0 1.66 1.34 3 3 3s3-1.34 3-3" 
          fill="#FFA500"/>
  </g>
</svg>